# Exported from Figuro at https://www.figuro.io

mtllib newscene.mtl
o cube39
v 94.06582733940832 0 -1282.6524602687805
v -350.0658273394083 0 -1282.6524602687805
v -350.0658273394083 256 -1282.6524602687805
v 94.06582733940832 256 -1282.6524602687805
v -350.0658273394083 0 -765.3475397312195
v -350.0658273394083 256 -765.3475397312195
v 94.06582733940832 0 -765.3475397312195
v 94.06582733940832 256 -765.3475397312195
# 8 vertices
vt -0.36744463804456373 2
vt 1.3674446380445637 2
vt 1.3674446380445637 1
vt -0.36744463804456373 1
vt -5.010361172924924 2
vt -2.989638827075076 2
vt -2.989638827075076 1
vt -5.010361172924924 1
vt -1.3674446380445637 2
vt 0.36744463804456373 2
vt 0.36744463804456373 1
vt -1.3674446380445637 1
vt 2.989638827075076 2
vt 5.010361172924924 2
vt 5.010361172924924 1
vt 2.989638827075076 1
vt 0.36744463804456373 -4.010361172924924
vt -1.3674446380445637 -4.010361172924924
vt -1.3674446380445637 -1.9896388270750762
vt 0.36744463804456373 -1.9896388270750762
vt 0.36744463804456373 3.989638827075076
vt -1.3674446380445637 3.989638827075076
vt -1.3674446380445637 6.010361172924924
vt 0.36744463804456373 6.010361172924924
# 24 uvs
vn 0.3333333333333333 -0.3333333333333333 -0.3333333333333333
vn -0.3333333333333333 -0.3333333333333333 -0.3333333333333333
vn -0.3333333333333333 0.3333333333333333 -0.3333333333333333
vn 0.3333333333333333 0.3333333333333333 -0.3333333333333333
vn -0.3333333333333333 -0.3333333333333333 0.3333333333333333
vn -0.3333333333333333 0.3333333333333333 0.3333333333333333
vn 0.3333333333333333 -0.3333333333333333 0.3333333333333333
vn 0.3333333333333333 0.3333333333333333 0.3333333333333333
# 8 normals
usemtl 4bed15
f 1/4/1 2/3/2 3/2/3 4/1/4 
usemtl 2daec2
f 2/8/2 5/7/5 6/6/6 3/5/3 
f 5/12/5 7/11/7 8/10/8 6/9/6 
f 4/24/4 3/23/3 6/22/6 8/21/8 
usemtl 4602e3
f 7/16/7 1/15/1 4/14/4 8/13/8 
usemtl c41dde
f 7/20/7 5/19/5 2/18/2 1/17/1 
# 6 polygons
